#define arrow1_width 16
#define arrow1_height 16
static unsigned char arrow1_bits[] = {
   0x00, 0x00, 0x00, 0x00, 0xfc, 0xff, 0xfc, 0xff, 0xf8, 0x7f, 0xf8, 0x7f,
   0xf0, 0x3f, 0xf0, 0x3f, 0xe0, 0x1f, 0xe0, 0x1f, 0xc0, 0x0f, 0xc0, 0x0f,
   0x80, 0x07, 0x80, 0x07, 0x00, 0x03, 0x00, 0x03};
