#define gridzilla_width 61
#define gridzilla_height 59
static char gridzilla_bits[] = {
 0x00,0x00,0x00,0x00,0x00,0x00,0x00,0x00,0x00,0x00,0x00,0x00,0x00,0x00,0x00,
 0x00,0x00,0x00,0x00,0x00,0x0c,0x00,0x00,0x00,0x00,0x08,0x00,0x00,0x07,0x06,
 0x00,0x00,0x00,0x30,0x07,0x00,0x83,0x03,0x00,0x00,0x00,0x78,0x1f,0x80,0xc1,
 0x01,0x00,0x00,0x08,0xf8,0xfc,0xc7,0x61,0x00,0x00,0x00,0x10,0xf8,0xf1,0xc3,
 0x7b,0x01,0x00,0x00,0x3c,0xc8,0xf7,0xe7,0xb9,0x00,0x10,0x00,0xc0,0x81,0x5f,
 0xe1,0xdc,0x00,0x18,0x00,0x80,0x86,0x7f,0x70,0xbe,0x18,0x1c,0x00,0x00,0x00,
 0xb0,0x70,0x6e,0x0c,0x18,0x00,0x00,0xf0,0x77,0x38,0x7f,0x06,0x1c,0x00,0x00,
 0xf0,0xbf,0xb1,0x37,0x03,0x12,0x00,0x00,0x60,0x3b,0x91,0xdf,0x03,0x03,0x00,
 0x00,0x30,0xc8,0xd1,0xdd,0x81,0x01,0x00,0x00,0x00,0xd8,0xc3,0xf7,0x41,0x00,
 0x00,0x00,0x00,0xbc,0xe1,0xf9,0x60,0x00,0x00,0x80,0x00,0xdc,0xf1,0xdd,0x60,
 0x00,0x00,0x00,0x12,0xbe,0x7b,0xae,0x00,0x00,0x00,0x00,0x27,0xbc,0x79,0x3f,
 0xfe,0x00,0x00,0x00,0x64,0x9c,0xa9,0x8a,0x7f,0x00,0x00,0x40,0x68,0xfc,0x41,
 0xe7,0x2f,0x00,0x00,0x80,0x73,0xb8,0xe3,0xfd,0x23,0x00,0x00,0x00,0x3f,0xb8,
 0xe7,0xf6,0x71,0x02,0x00,0x00,0x78,0xb8,0x23,0x77,0xe0,0xff,0x00,0x00,0x30,
 0xb8,0x03,0x76,0x80,0xff,0x01,0x00,0x70,0x70,0x03,0xf6,0x0b,0xf0,0x03,0x00,
 0xe0,0xb0,0x07,0xeb,0x00,0xc0,0x03,0x00,0x90,0x71,0xed,0x6d,0x00,0xe0,0x01,
 0x00,0x1c,0x71,0x9d,0x36,0x00,0xf8,0x01,0x00,0x18,0x63,0xbd,0xa9,0xff,0xff,
 0x00,0x00,0x04,0xe6,0x7a,0xa5,0xef,0x7f,0x00,0x00,0x02,0xce,0xfd,0x8f,0xbf,
 0x3f,0x00,0x00,0x00,0x3c,0xd5,0x3f,0x69,0x17,0x00,0x00,0x00,0x7c,0xea,0xdd,
 0x7f,0x00,0x00,0x00,0x00,0x1c,0xa7,0xef,0xff,0x40,0x00,0x00,0x00,0x80,0x0f,
 0x40,0xff,0x3f,0x00,0x00,0x00,0xc0,0x1f,0xe0,0xfe,0x1f,0x00,0x00,0x00,0xe0,
 0x1f,0xf0,0x7c,0x0b,0x00,0x00,0x1c,0x30,0x00,0xf0,0x00,0x08,0x00,0x00,0xfd,
 0x0d,0x00,0xf0,0x01,0x0c,0x00,0x00,0xc8,0x07,0x00,0xc0,0x07,0x0c,0x00,0x00,
 0xa0,0x03,0x40,0x00,0x1f,0x0c,0x00,0x00,0xfe,0x07,0x40,0xe0,0x03,0x0c,0x00,
 0x00,0x4f,0x06,0x86,0xfc,0x00,0x04,0x00,0x80,0x30,0x0c,0x98,0x1e,0x00,0x04,
 0x00,0x00,0x1c,0x00,0x60,0x01,0x00,0x04,0x00,0x00,0x0e,0x10,0xe0,0x02,0x00,
 0x06,0x00,0x00,0x02,0x00,0x34,0x02,0x00,0x02,0x00,0x00,0x01,0x00,0x1c,0x04,
 0xbc,0x7f,0x00,0x00,0x00,0x00,0x00,0x00,0xe0,0x59,0x00,0x00,0x00,0x00,0x00,
 0x80,0xbf,0x00,0x00,0x00,0x00,0x00,0x00,0x00,0x40,0x00,0x00,0x00,0x00,0x00,
 0x00,0x00,0x20,0x00,0x00,0x00,0x00,0x00,0x00,0x00,0x38,0x00,0x00,0x00,0x00,
 0x00,0x00,0x00,0x00,0x00,0x00,0x00,0x00,0x00,0x00,0x00,0x00,0x00,0x00,0x00,
 0x00,0x00,0x00,0x00,0x00,0x00,0x00};
