#define livedata.xbm_width 64
#define livedata.xbm_height 64
static unsigned char livedata.xbm_bits[] = {
   0x00, 0x00, 0x00, 0x00, 0x00, 0x00, 0x00, 0x00, 0x00, 0x00, 0x00, 0x00,
   0x00, 0x00, 0x00, 0x00, 0x00, 0x00, 0x00, 0x00, 0x00, 0x00, 0x00, 0x00,
   0x00, 0x00, 0x00, 0x00, 0x00, 0x00, 0x00, 0x00, 0x00, 0x00, 0x00, 0x00,
   0x00, 0x00, 0x00, 0x00, 0x00, 0x00, 0x00, 0x00, 0x00, 0x00, 0x00, 0x00,
   0x00, 0x00, 0x00, 0x00, 0x00, 0x00, 0x00, 0x00, 0x00, 0x00, 0x00, 0x00,
   0x00, 0x00, 0x00, 0x00, 0x00, 0x00, 0x00, 0x00, 0x00, 0x00, 0x00, 0x00,
   0x00, 0x00, 0x00, 0x00, 0x00, 0x00, 0x00, 0x00, 0x00, 0x00, 0x00, 0x00,
   0x00, 0x00, 0x00, 0x00, 0x00, 0x00, 0xe0, 0x00, 0x80, 0x03, 0x00, 0x00,
   0x00, 0x00, 0xf8, 0x03, 0xe0, 0x0f, 0x00, 0x00, 0x00, 0x00, 0xf8, 0x03,
   0xe0, 0x0f, 0x00, 0x00, 0x00, 0x00, 0xfc, 0x07, 0xf0, 0x1f, 0x00, 0x00,
   0x00, 0x00, 0xfc, 0x07, 0xf0, 0x1f, 0x00, 0x00, 0x00, 0x00, 0xfc, 0x07,
   0xf0, 0x1f, 0x00, 0x00, 0x00, 0x00, 0xf8, 0xc3, 0xe1, 0x0f, 0x00, 0x00,
   0x00, 0x00, 0xf8, 0xf3, 0xe7, 0x0f, 0x00, 0x00, 0x00, 0x00, 0xe0, 0xf0,
   0x87, 0x03, 0x00, 0x00, 0x00, 0x00, 0x00, 0xf8, 0x0f, 0x00, 0x00, 0x00,
   0x00, 0x00, 0x00, 0xf8, 0x0f, 0x00, 0x00, 0x00, 0x00, 0x00, 0xe0, 0xf8,
   0x8f, 0x03, 0x00, 0x00, 0x00, 0x00, 0xf8, 0xf3, 0xe7, 0x0f, 0x00, 0x00,
   0x00, 0x00, 0xf8, 0xf3, 0xe7, 0x0f, 0x00, 0x00, 0x00, 0x00, 0xfc, 0xc7,
   0xf1, 0x1f, 0x00, 0x00, 0x00, 0x00, 0xfc, 0x07, 0xf0, 0x1f, 0x00, 0x00,
   0x00, 0x00, 0xfc, 0x07, 0xf0, 0x1f, 0x00, 0x00, 0x00, 0x70, 0xf8, 0xc3,
   0xe1, 0x0f, 0x07, 0x00, 0x00, 0xfc, 0xf9, 0xf3, 0xe7, 0xcf, 0x1f, 0x00,
   0x00, 0xfc, 0xe1, 0xf0, 0x87, 0xc3, 0x1f, 0x00, 0x00, 0xfe, 0x03, 0xf8,
   0x0f, 0xe0, 0x3f, 0x00, 0x00, 0xfe, 0x03, 0xf8, 0x0f, 0xe0, 0x3f, 0x00,
   0x00, 0xfe, 0xe3, 0xf8, 0x8f, 0xe3, 0x3f, 0x00, 0x00, 0xfc, 0xf9, 0xf3,
   0xe7, 0xcf, 0x1f, 0x00, 0x00, 0xfc, 0xf9, 0xf3, 0xe7, 0xcf, 0x1f, 0x00,
   0x00, 0x70, 0xfc, 0xc7, 0xf1, 0x1f, 0x07, 0x00, 0x00, 0x00, 0xfc, 0x07,
   0xf0, 0x1f, 0x00, 0x00, 0x00, 0x00, 0xfc, 0x07, 0xf0, 0x1f, 0x00, 0x00,
   0x00, 0x00, 0xf8, 0xc3, 0xe1, 0x0f, 0x00, 0x00, 0x00, 0x00, 0xf8, 0xf3,
   0xe7, 0x0f, 0x00, 0x00, 0x00, 0x00, 0xe0, 0xf0, 0x87, 0x03, 0x00, 0x00,
   0x00, 0x00, 0x00, 0xf8, 0x0f, 0x00, 0x00, 0x00, 0x00, 0x00, 0x00, 0xf8,
   0x0f, 0x00, 0x00, 0x00, 0x00, 0x00, 0xe0, 0xf8, 0x8f, 0x03, 0x00, 0x00,
   0x00, 0x00, 0xf8, 0xf3, 0xe7, 0x0f, 0x00, 0x00, 0x00, 0x00, 0xf8, 0xf3,
   0xe7, 0x0f, 0x00, 0x00, 0x00, 0x00, 0xfc, 0xc7, 0xf1, 0x1f, 0x00, 0x00,
   0x00, 0x00, 0xfc, 0x07, 0xf0, 0x1f, 0x00, 0x00, 0x00, 0x00, 0xfc, 0x07,
   0xf0, 0x1f, 0x00, 0x00, 0x00, 0x00, 0xf8, 0x03, 0xe0, 0x0f, 0x00, 0x00,
   0x00, 0x00, 0xf8, 0x03, 0xe0, 0x0f, 0x00, 0x00, 0x00, 0x00, 0xe0, 0x00,
   0x80, 0x03, 0x00, 0x00, 0x00, 0x00, 0x00, 0x00, 0x00, 0x00, 0x00, 0x00,
   0x00, 0x00, 0x00, 0x00, 0x00, 0x00, 0x00, 0x00, 0x00, 0x00, 0x00, 0x00,
   0x00, 0x00, 0x00, 0x00, 0x00, 0x00, 0x00, 0x00, 0x00, 0x00, 0x00, 0x00,
   0x00, 0x00, 0x00, 0x00, 0x00, 0x00, 0x00, 0x00, 0x00, 0x00, 0x00, 0x00,
   0x00, 0x00, 0x00, 0x00, 0x00, 0x00, 0x00, 0x00, 0x00, 0x00, 0x00, 0x00,
   0x00, 0x00, 0x00, 0x00, 0x00, 0x00, 0x00, 0x00, 0x00, 0x00, 0x00, 0x00,
   0x00, 0x00, 0x00, 0x00, 0x00, 0x00, 0x00, 0x00, 0x00, 0x00, 0x00, 0x00,
   0x00, 0x00, 0x00, 0x00, 0x00, 0x00, 0x00, 0x00};
