#define magnifyb2_width 16
#define magnifyb2_height 24
static char magnifyb2_bits[] = {
   0x00, 0x00, 0xf0, 0x01, 0xbc, 0x07, 0x04, 0x04, 0x46, 0x0c, 0x46, 0x0c,
   0xf2, 0x09, 0x46, 0x0c, 0x46, 0x0c, 0x04, 0x04, 0xbc, 0x0f, 0xf0, 0x1d,
   0x00, 0x38, 0x00, 0x70, 0x00, 0xe0, 0x00, 0xc0, 0x00, 0x00, 0xfc, 0x7f,
   0xc4, 0x47, 0xc4, 0x47, 0xc4, 0x47, 0xc4, 0x47, 0xfc, 0x7f, 0x00, 0x00};
