#define mpcrosshairb2_width 16
#define mpcrosshairb2_height 24
static unsigned char mpcrosshairb2_bits[] = {
  0x00, 0x00, 0x00, 0x00, 0xfe, 0xff, 0x02, 0x81, 0x12, 0x81, 0x3a, 0xbd,
  0x12, 0x81, 0x02, 0x81, 0xfe, 0xff, 0x02, 0x01, 0x12, 0x01, 0x12, 0x01,
  0x12, 0x01, 0x02, 0x01, 0xfe, 0x01, 0x00, 0x00, 0x00, 0x00, 0xfc, 0x7f,
  0xc4, 0x47, 0xc4, 0x47, 0xc4, 0x47, 0xc4, 0x47, 0xfc, 0x7f, 0x00, 0x00,
  };
