#define rectregionb0_width 16
#define rectregionb0_height 24
static char rectregionb0_bits[] = {
   0x00, 0x00, 0x00, 0x00, 0xfe, 0x7f, 0x06, 0x60, 0xe2, 0x43, 0x22, 0x44,
   0x22, 0x44, 0xe2, 0x43, 0xa2, 0x40, 0x22, 0x41, 0x22, 0x42, 0x22, 0x44,
   0x06, 0x60, 0xfe, 0x7f, 0x00, 0x00, 0x00, 0x00, 0x00, 0x00, 0xfc, 0x7f,
   0x44, 0x44, 0x44, 0x44, 0x44, 0x44, 0x44, 0x44, 0xfc, 0x7f, 0x00, 0x00};
