#define leftarrow_width 17
#define leftarrow_height 17
static char leftarrow_bits[] = {
   0x00, 0x00, 0x00, 0x00, 0x00, 0x00, 0x00, 0xc0, 0x00, 0x00, 0xf0, 0x00,
   0x00, 0xfc, 0x00, 0x00, 0xff, 0x00, 0xc0, 0xff, 0x00, 0xf0, 0xff, 0x00,
   0xfc, 0xff, 0x00, 0xfc, 0xff, 0x00, 0xf0, 0xff, 0x00, 0xc0, 0xff, 0x00,
   0x00, 0xff, 0x00, 0x00, 0xfc, 0x00, 0x00, 0xf0, 0x00, 0x00, 0xc0, 0x00,
   0x00, 0x00, 0x00};
