#define noentry_width 16
#define noentry_height 16
#define noentry_x_hot 6
#define noentry_y_hot 6
static char noentry_bits[] = {
   0xe0, 0x01, 0xf8, 0x07, 0xfc, 0x0f, 0xfe, 0x1f, 0xfe, 0x1f, 0xff, 0x3f,
   0x01, 0x20, 0x01, 0x20, 0xff, 0x3f, 0xfe, 0x1f, 0xfe, 0x1f, 0xfc, 0x0f,
   0xf8, 0x07, 0xe0, 0x01, 0x00, 0x00, 0x00, 0x00};
