#define rightarrowstop_width 21
#define rightarrowstop_height 17
static char rightarrowstop_bits[] = {
   0x00, 0x00, 0x00, 0x00, 0x00, 0x00, 0x0c, 0x00, 0x0e, 0x3c, 0x00, 0x0e,
   0xfc, 0x00, 0x0e, 0xfc, 0x03, 0x0e, 0xfc, 0x0f, 0x0e, 0xfc, 0x3f, 0x0e,
   0xfc, 0xff, 0x0e, 0xfc, 0xff, 0x0e, 0xfc, 0x3f, 0x0e, 0xfc, 0x0f, 0x0e,
   0xfc, 0x03, 0x0e, 0xfc, 0x00, 0x0e, 0x3c, 0x00, 0x0e, 0x0c, 0x00, 0x0e,
   0x00, 0x00, 0x00};
