#define arrowcrossb2_width 16
#define arrowcrossb2_height 24
static char arrowcrossb2_bits[] = {
   0x80, 0x01, 0xc0, 0x03, 0xe0, 0x07, 0x80, 0x01, 0x80, 0x01, 0x84, 0x21,
   0x86, 0x61, 0xff, 0xff, 0xff, 0xff, 0x86, 0x61, 0x84, 0x21, 0x80, 0x01,
   0x80, 0x01, 0xe0, 0x07, 0xc0, 0x03, 0x80, 0x01, 0x00, 0x00, 0xfc, 0x7f,
   0xc4, 0x47, 0xc4, 0x47, 0xc4, 0x47, 0xc4, 0x47, 0xfc, 0x7f, 0x00, 0x00};
