#define brightcontrastb1_width 16
#define brightcontrastb1_height 24
static char brightcontrastb1_bits[] = {
   0x00, 0x00, 0x00, 0x01, 0x00, 0x01, 0xc8, 0x27, 0x30, 0x1e, 0x10, 0x1f,
   0x08, 0x3e, 0x08, 0x3f, 0x0e, 0xfe, 0x08, 0x3f, 0x08, 0x3e, 0x10, 0x1f,
   0x30, 0x1e, 0xc8, 0x27, 0x00, 0x01, 0x00, 0x01, 0x00, 0x00, 0xfc, 0x7f,
   0x7c, 0x44, 0x7c, 0x44, 0x7c, 0x44, 0x7c, 0x44, 0xfc, 0x7f, 0x00, 0x00};
