#define crosshairb3_width 16
#define crosshairb3_height 24
static char crosshairb3_bits[] = {
   0x00, 0x00, 0x00, 0x01, 0x00, 0x01, 0xe0, 0x0f, 0x10, 0x11, 0xc8, 0x27,
   0x28, 0x29, 0x28, 0x28, 0x7e, 0xfc, 0x28, 0x28, 0x28, 0x29, 0xc8, 0x27,
   0x10, 0x11, 0xe0, 0x0f, 0x00, 0x01, 0x00, 0x01, 0x00, 0x00, 0xfc, 0x7f,
   0x44, 0x7c, 0x44, 0x7c, 0x44, 0x7c, 0x44, 0x7c, 0xfc, 0x7f, 0x00, 0x00};
