#define cross.xbm_width 16
#define cross.xbm_height 16
static char cross.xbm_bits[] = {
   0x03, 0x30, 0x07, 0x38, 0x0e, 0x1c, 0x1c, 0x0e, 0x38, 0x07, 0xf0, 0x03,
   0xe0, 0x01, 0xe0, 0x01, 0xf0, 0x03, 0x38, 0x07, 0x1c, 0x0e, 0x0e, 0x1c,
   0x07, 0x38, 0x03, 0x30, 0x00, 0x00, 0x00, 0x00};
