#define handb2_width 16
#define handb2_height 24
static char handb2_bits[] = {
   0x80, 0x01, 0x58, 0x0e, 0x64, 0x12, 0x64, 0x52, 0x48, 0xb2, 0x48, 0x92,
   0x16, 0x90, 0x19, 0x80, 0x31, 0x40, 0x22, 0x40, 0x04, 0x40, 0x08, 0x20,
   0x10, 0x20, 0xf8, 0x7f, 0x08, 0x40, 0x08, 0x50, 0x00, 0x00, 0xfc, 0x7f,
   0xc4, 0x47, 0xc4, 0x47, 0xc4, 0x47, 0xc4, 0x47, 0xfc, 0x7f, 0x00, 0x00};
