#define leftarrowstop_width 21
#define leftarrowstop_height 17
static char leftarrowstop_bits[] = {
   0x00, 0x00, 0x00, 0x00, 0x00, 0x00, 0x1c, 0x00, 0x0c, 0x1c, 0x00, 0x0f,
   0x1c, 0xc0, 0x0f, 0x1c, 0xf0, 0x0f, 0x1c, 0xfc, 0x0f, 0x1c, 0xff, 0x0f,
   0xdc, 0xff, 0x0f, 0xdc, 0xff, 0x0f, 0x1c, 0xff, 0x0f, 0x1c, 0xfc, 0x0f,
   0x1c, 0xf0, 0x0f, 0x1c, 0xc0, 0x0f, 0x1c, 0x00, 0x0f, 0x1c, 0x00, 0x0c,
   0x00, 0x00, 0x00};
