#define polylineb3_width 16
#define polylineb3_height 24
static unsigned char polylineb3_bits[] = {
   0x00, 0x00, 0x00, 0x00, 0x00, 0x20, 0x20, 0x10, 0x20, 0x08, 0x50, 0x10,
   0x90, 0x20, 0x08, 0x41, 0x08, 0x42, 0x04, 0x24, 0x02, 0x22, 0x02, 0x11,
   0x80, 0x10, 0x00, 0x09, 0x00, 0x0a, 0x00, 0x04, 0x00, 0x00, 0xfc, 0x7f,
   0x44, 0x7c, 0x44, 0x7c, 0x44, 0x7c, 0x44, 0x7c, 0xfc, 0x7f, 0x00, 0x00 };
