#define polyregion_width 16
#define polyregion_height 16
static unsigned char polyregion_bits[] = {
   0x00, 0x00, 0xe0, 0x00, 0xa0, 0x03, 0x18, 0x1c, 0x06, 0x60, 0xe6, 0x63,
   0x22, 0x24, 0x22, 0x24, 0xe2, 0x33, 0xa6, 0x30, 0x24, 0x21, 0x24, 0x42,
   0x24, 0x44, 0x04, 0x60, 0x1c, 0x3f, 0xf8, 0x00};
