#define square_width 17
#define square_height 17
static char square_bits[] = {
   0x00, 0x00, 0x00, 0x00, 0x00, 0x00, 0xfc, 0xff, 0x00, 0xfc, 0xff, 0x00,
   0xfc, 0xff, 0x00, 0xfc, 0xff, 0x00, 0xfc, 0xff, 0x00, 0xfc, 0xff, 0x00,
   0xfc, 0xff, 0x00, 0xfc, 0xff, 0x00, 0xfc, 0xff, 0x00, 0xfc, 0xff, 0x00,
   0xfc, 0xff, 0x00, 0xfc, 0xff, 0x00, 0xfc, 0xff, 0x00, 0xfc, 0xff, 0x00,
   0x00, 0x00, 0x00};
