/* Created with The GIMP */
#define hist_width 16
#define hist_height 16
static unsigned char hist_bits[] = {
   0x00, 0x00, 0x06, 0x00, 0x06, 0x00, 0x06, 0x00, 0x06, 0x00, 0x06, 0x00,
   0x46, 0x04, 0x46, 0x04, 0x46, 0x04, 0x46, 0x04, 0x56, 0x24, 0x56, 0x25,
   0x56, 0x25, 0x56, 0x25, 0xfe, 0x7f, 0x00, 0x00 };
